<svg id="レイヤー_1" data-name="レイヤー 1" xmlns="http://www.w3.org/2000/svg" viewBox="0 0 689.27 779.74"><defs><style>.cls-1{fill:#81bc4c;}.cls-2{fill:none;stroke:#553019;stroke-linecap:round;stroke-linejoin:round;stroke-width:20px;}.cls-3{fill:#fff;}.cls-4{fill:#d2d0d2;}.cls-5{fill:#9f6a25;}</style></defs><path class="cls-1" d="M679.27,390.79c-72.18,85.17-87.9,161.78-87.85,212.52-8.91-17.91-18.23-34.94-27.9-50.95l39.07-319.93c-96.41,113.75-92.11,212.24-84,254.18-77.11-100.3-155.34-146.93-155.34-146.93l3.34,41.67c76.17,58.13,130.35,132,168,199.78-32.08-27.66-115.64-80.79-263-53.09L567.77,648.12c5,11.24,9.4,22,13.38,32.13C545.8,651.82,463.34,605,323.24,631.39L604.66,749.46c3.64,12.84,5.29,20.28,5.29,20.28l38.34-6.67c-3.63-16-7.79-31.39-12.26-46.41l43.24-325.87Z"/><path class="cls-2" d="M679.27,390.79c-72.18,85.17-87.9,161.78-87.85,212.52-8.91-17.91-18.23-34.94-27.9-50.95l39.07-319.93c-96.41,113.75-92.11,212.24-84,254.18-77.11-100.3-155.34-146.93-155.34-146.93l3.34,41.67c76.17,58.13,130.35,132,168,199.78-32.08-27.66-115.64-80.79-263-53.09L567.77,648.12c5,11.24,9.4,22,13.38,32.13C545.8,651.82,463.34,605,323.24,631.39L604.66,749.46c3.64,12.84,5.29,20.28,5.29,20.28l38.34-6.67c-3.63-16-7.79-31.39-12.26-46.41l43.24-325.87Z"/><path class="cls-3" d="M268.23,167.43s-85.57,12.23-106.68,72.24L70.43,250.78s0,26.67-2.23,40-16.67,60-16.67,60l97.79-24.44s-72.23,65.56-71.12,100,54.45,100,71.12,105.56-17.79-27.78,10-72.23,87.8-63.34,87.8-63.34,35.56,57.78,47.78,61.11,98.91,38.91,110,48.91S422.7,518.6,422.7,518.6s-14.45-72.23-12.22-88.9,1.09-31.12-4.45-44.45-35.56-61.13-35.56-61.13S443.81,275.23,466,283s51.12,48.89,51.12,48.89-1.12-71.12-8.9-91.12S472.71,194.1,453.82,193s-93.35,14.44-93.35,14.44l61.11-65.56s-31.12-18.89-38.89-20-41.12-23.33-41.12-23.33-62.23,31.11-73.34,68.89Z"/><polygon class="cls-4" points="131.54 329.69 54.86 353.02 77.09 406.36 131.54 329.69 131.54 329.69"/><polygon class="cls-4" points="180.44 431.92 155.99 469.71 193.78 484.14 180.44 431.92 180.44 431.92"/><polygon class="cls-4" points="368.73 198.32 426.05 142.29 462.14 187.42 368.73 198.32 368.73 198.32"/><polygon class="cls-4" points="420.43 294.78 465.31 291.5 459.81 331.58 420.43 294.78 420.43 294.78"/><path class="cls-5" d="M16,144.09s45.55,94.46,78.89,56.68S16,144.09,16,144.09Z"/><path class="cls-5" d="M111.42,55.43s4.24,104.78,49.85,83.37-49.85-83.37-49.85-83.37Z"/><path class="cls-5" d="M233.22,14.8s-33.37,99.42,16.87,95.67S233.22,14.8,233.22,14.8Z"/><path class="cls-2" d="M364.88,325.15s61.56-44.06,104.4-39.83,47.46,55.6,47.46,55.6C532,298.59,520,233.89,477,205.45S346.35,215.5,346.35,215.5c15.64-25,81.42-68.72,74.75-75.76s-32.66-22.11-44.63-19.41-44.63-19.41-44.63-19.41c-48.62,28.69-64.95,71.61-64.95,71.61s-89.42,1.74-110.17,72.76c0,0-45.09-17.81-94.86,8.83,0,0,12.87,37.28,4.35,46.11S51.36,341,53.91,350.33,128,326.17,157.48,325.79c0,0-78.38,54.9-76.4,106.39s51,95.43,95.11,104.34c0,0-41.5-30.63-22.87-69.44s88.26-68.52,88.26-68.52m59.9-56.62S249.91,353.4,244,362.12s5.83,75.43,74,102.72c64.44,25.83,91.5,44.75,103.64,52.33,12.48,7.83-15.51-66.44-14.61-105.1,1-43.73-53.55-104.78-73.71-119.06-21.77,6.85-31.83,48.93-31.83,48.93ZM54.62,354s7.06,36.51,24.28,55.14M154,470.75s26.44,13.44,43.81,13.12c0,0-14.48-37.73-15.44-46.63M422.62,143.62s27.55,25,34.53,49.38m12.5,100.2s-2.24,29.59-11.52,44.26c0,0-24.71-32-31.83-37.41M95.81,201.61s130.06,34.75,172.75,140m32.77-8.94S186.17,166.87,160.36,143m96.29-28.8s18.86,116.16,57.59,185.67M106.32,49.7s11.87,113.07,53.55,89.62c37.58-21.13-53.55-89.62-53.55-89.62ZM10,142.11s57.54,98.08,85.81,59.5C121.3,166.85,10,142.11,10,142.11ZM232.52,10s-25.93,110.72,21.15,102.26C296.09,104.64,232.52,10,232.52,10Z"/></svg>